<?xml version="1.0" standalone="no"?>
<!DOCTYPE svg PUBLIC "-//W3C//DTD SVG 20010904//EN"
 "http://www.w3.org/TR/2001/REC-SVG-20010904/DTD/svg10.dtd">
<svg version="1.0" xmlns="http://www.w3.org/2000/svg"
 width="136pt" height="39pt" viewBox="0 0 136 39"
 preserveAspectRatio="xMidYMid meet">
<metadata>
Created by potrace 1.8, written by Peter Selinger 2001-2007
</metadata>
<g transform="translate(0,39) scale(0.080000,-0.080000)"
fill="#000000" stroke="none">
<path d="M154 463 c-97 -33 -162 -141 -149 -245 8 -64 24 -97 70 -141 42 -41
96 -64 150 -63 35 1 40 4 40 25 0 21 -5 24 -42 27 -99 7 -165 79 -166 179 -1
125 101 200 236 172 29 -5 85 -54 103 -88 8 -17 17 -52 18 -77 1 -26 5 -46 9
-44 4 1 16 2 27 2 16 0 20 7 20 33 0 83 -56 174 -132 213 -41 21 -133 25 -184
7z"/>
<path d="M223 328 c2 -21 -1 -48 -8 -61 -21 -41 5 -76 41 -52 11 7 42 13 68
13 26 0 50 3 53 6 13 12 -8 19 -56 18 -60 -2 -74 12 -73 71 1 32 -3 44 -14 44
-11 0 -14 -10 -11 -39z"/>
<path d="M680 351 c0 -4 -11 -7 -25 -5 -28 3 -59 -22 -49 -38 4 -7 10 -4 16 6
7 12 24 16 68 16 32 0 62 -4 65 -10 12 -19 26 -11 15 9 -7 14 -17 18 -34 15
-14 -2 -28 0 -31 6 -8 12 -25 13 -25 1z"/>
<path d="M840 281 c0 -44 4 -83 10 -86 15 -9 81 -12 86 -4 2 5 11 6 18 3 9 -3
12 3 10 23 -1 15 -2 49 -3 76 -1 26 -6 47 -12 47 -7 0 -9 -24 -7 -67 l3 -68
-40 0 -40 0 -3 78 c-4 101 -22 100 -22 -2z"/>
<path d="M1060 352 c0 -6 18 -9 40 -8 38 2 40 1 40 -26 0 -25 -3 -28 -35 -28
-38 0 -47 -11 -50 -58 0 -14 -6 -27 -12 -29 -8 -3 -13 14 -15 49 -2 44 -6 53
-23 56 -16 3 -18 1 -7 -9 6 -7 12 -34 12 -60 0 -32 5 -49 15 -52 8 -4 17 -2
20 3 4 6 13 7 23 1 15 -8 88 -8 102 -1 3 2 -17 6 -45 9 -48 6 -50 7 -50 36 1
22 6 31 20 33 64 9 66 11 63 50 -3 37 -4 37 -50 40 -27 2 -48 -1 -48 -6z"/>
<path d="M1201 344 c-10 -12 -11 -18 -3 -23 8 -5 9 -24 2 -66 -12 -74 -12 -78
-1 -71 5 3 12 23 15 43 14 82 18 93 32 93 10 0 14 -15 14 -60 0 -47 -3 -60
-15 -60 -8 0 -15 -4 -15 -10 0 -13 6 -13 31 1 15 7 24 7 35 -1 7 -7 25 -9 39
-6 24 6 25 9 25 86 0 44 -4 80 -9 80 -5 0 -16 3 -24 6 -18 6 -49 -23 -41 -39
3 -7 -1 -4 -9 6 -8 9 -22 17 -31 17 -9 0 -16 5 -16 10 0 14 -13 12 -29 -6z
m139 -74 c0 -62 -2 -70 -19 -70 -17 0 -19 8 -19 63 0 69 3 77 24 77 11 0 14
-16 14 -70z"/>
<path d="M1385 350 c-3 -6 -2 -10 4 -10 5 0 10 -28 10 -65 0 -36 -4 -65 -10
-65 -5 0 -9 -4 -9 -9 0 -4 12 -6 26 -3 14 2 29 0 33 -7 11 -17 40 19 43 52 4
41 28 34 28 -8 0 -26 -4 -35 -17 -35 -9 0 -14 -3 -10 -6 9 -9 77 -11 77 -2 0
5 -7 8 -15 8 -19 0 -21 66 -2 74 10 5 10 7 0 12 -20 9 -16 54 4 54 35 0 0 15
-42 17 -36 3 -43 0 -39 -12 5 -11 2 -13 -10 -9 -9 3 -16 9 -16 13 0 11 -48 12
-55 1z m55 -41 c0 -17 -4 -28 -10 -24 -5 3 -10 17 -10 31 0 13 5 24 10 24 6 0
10 -14 10 -31z m70 6 c0 -14 -6 -25 -14 -25 -8 0 -12 9 -11 23 3 27 3 27 15
27 6 0 10 -11 10 -25z m-70 -65 c0 -11 5 -20 11 -20 5 0 8 -4 4 -10 -3 -5 -12
-7 -20 -3 -17 6 -21 53 -5 53 6 0 10 -9 10 -20z"/>
<path d="M890 323 c0 -46 11 -93 21 -87 10 6 0 95 -12 109 -5 5 -9 -4 -9 -22z"/>
<path d="M821 340 c-13 -29 -22 -150 -12 -150 11 0 25 95 18 131 -2 13 -5 22
-6 19z"/>
<path d="M630 300 c0 -5 -8 -10 -17 -11 -11 0 -13 -3 -5 -6 6 -2 12 -11 12
-19 0 -8 9 -23 19 -33 19 -19 19 -20 -10 -26 -16 -4 -27 -11 -24 -15 3 -5 25
-3 48 4 24 7 51 9 62 5 11 -4 31 -7 45 -7 l25 0 -27 11 c-35 13 -35 25 -3 60
l26 27 -28 1 c-15 1 -45 1 -65 2 -21 0 -38 4 -38 9 0 4 -4 8 -10 8 -5 0 -10
-4 -10 -10z m97 -37 c2 -6 -6 -18 -19 -27 -21 -15 -24 -15 -41 3 -11 10 -17
23 -13 29 8 13 69 9 73 -5z"/>
<path d="M290 175 c0 -4 9 -20 21 -36 11 -16 17 -29 12 -28 -19 3 -33 -2 -33
-12 0 -5 3 -8 8 -6 4 3 16 1 27 -4 17 -7 16 -8 -8 -8 -18 -1 -26 -5 -21 -12 3
-6 15 -9 25 -6 12 3 19 -1 21 -16 4 -28 28 -35 28 -8 0 16 6 21 24 21 14 0 28
5 31 10 4 6 -7 10 -26 10 -28 0 -34 13 -8 16 5 1 14 2 19 3 16 2 11 21 -6 21
-13 0 -12 5 5 27 12 14 20 28 18 30 -9 9 -34 -10 -51 -38 l-18 -30 -21 32
c-21 30 -47 49 -47 34z"/>
<path d="M1510 95 c-27 -33 19 -71 48 -39 16 17 16 17 0 5 -21 -16 -48 -8 -48
13 0 8 8 20 18 25 9 6 12 11 6 11 -6 0 -17 -7 -24 -15z"/>
</g>
</svg>
